<svg width="32" height="32" viewBox="0 0 32 32" fill="none" xmlns="http://www.w3.org/2000/svg">
<path d="M31.9978 16.0057C31.9978 24.0888 26.0078 30.7712 18.2265 31.8556C17.4989 31.9566 16.7545 32.0093 15.9989 32.0093C15.1267 32.0093 14.2702 31.9398 13.4361 31.8052C5.81839 30.5784 0 23.971 0 16.0057C0 7.16676 7.16368 0.000976562 16 0.000976562C24.8363 0.000976562 32 7.16676 32 16.0057H31.9978Z" fill="white" fill-opacity="0.9"/>
<path d="M18.2265 12.8521V16.3385H22.5382L21.8554 21.035H18.2265V31.8554C17.4989 31.9563 16.7545 32.009 15.9989 32.009C15.1267 32.009 14.2702 31.9395 13.4361 31.8049V21.035H9.45969V16.3385H13.4361V12.0727C13.4361 9.42616 15.5808 7.27979 18.2276 7.27979V7.28203C18.2355 7.28203 18.2422 7.27979 18.25 7.27979H22.5393V11.3415H19.7366C18.9036 11.3415 18.2276 12.0177 18.2276 12.8509L18.2265 12.8521Z" fill="black"/>
</svg>
