<svg width="16" height="17" viewBox="0 0 16 17" fill="none" xmlns="http://www.w3.org/2000/svg">
<g clip-path="url(#clip0_446_29)">
<path d="M15.7074 15.2781L12.6107 12.18C14.9278 9.08349 14.296 4.69482 11.1995 2.37767C8.10296 0.0605264 3.71429 0.692337 1.39714 3.78885C-0.920003 6.88537 -0.288193 11.274 2.80832 13.5912C5.2957 15.4525 8.71206 15.4525 11.1995 13.5912L14.2975 16.6893C14.6869 17.0786 15.3181 17.0786 15.7074 16.6893C16.0967 16.2999 16.0967 15.6687 15.7074 15.2794L15.7074 15.2781ZM7.02971 12.9932C4.27768 12.9932 2.04674 10.7623 2.04674 8.01025C2.04674 5.25821 4.27768 3.02727 7.02971 3.02727C9.78175 3.02727 12.0127 5.25821 12.0127 8.01025C12.0098 10.761 9.78054 12.9903 7.02971 12.9932Z" fill="#003565"/>
</g>
<defs>
<clipPath id="clip0_446_29">
<rect width="16" height="16" fill="white" transform="translate(0 0.98114)"/>
</clipPath>
</defs>
</svg>
