<svg width="16" height="15" viewBox="0 0 16 15" fill="none" xmlns="http://www.w3.org/2000/svg">
<path d="M12.7074 4.90883C12.6146 4.82171 12.5043 4.7526 12.3829 4.70545C12.2615 4.6583 12.1315 4.63403 12.0001 4.63403C11.8687 4.63403 11.7386 4.6583 11.6173 4.70545C11.4959 4.7526 11.3856 4.82171 11.2928 4.90883L8.23542 7.77446C8.17291 7.83304 8.08814 7.86595 7.99975 7.86595C7.91136 7.86595 7.82659 7.83304 7.76408 7.77446L4.70742 4.90883C4.51991 4.73296 4.26556 4.63412 4.00032 4.63407C3.73508 4.63401 3.48068 4.73273 3.29308 4.90852C3.10549 5.08431 3.00006 5.32276 3 5.57142C2.99994 5.82009 3.10524 6.05859 3.29275 6.23446L6.35008 9.10071C6.56676 9.30386 6.82399 9.46501 7.1071 9.57496C7.39021 9.6849 7.69365 9.74149 8.00008 9.74149C8.30652 9.74149 8.60996 9.6849 8.89307 9.57496C9.17618 9.46501 9.43341 9.30386 9.65008 9.10071L12.7074 6.23446C12.8949 6.05865 13.0002 5.82024 13.0002 5.57165C13.0002 5.32305 12.8949 5.08464 12.7074 4.90883Z" fill="white"/>
</svg>
