<svg width="14" height="15" viewBox="0 0 14 15" fill="none" xmlns="http://www.w3.org/2000/svg">
<g clip-path="url(#clip0_389_2625)">
<path d="M13.4874 5.7902L9.0628 1.36504C8.51519 0.81903 7.77343 0.512421 7.00013 0.512421C6.22683 0.512421 5.48507 0.81903 4.93746 1.36504L0.512879 5.7902C0.349794 5.95224 0.220495 6.14504 0.132477 6.35743C0.0444596 6.56981 -0.000525663 6.79755 0.000129117 7.02745V12.754C0.000129117 13.2182 0.184504 13.6633 0.512692 13.9915C0.840881 14.3197 1.286 14.504 1.75013 14.504H12.2501C12.7143 14.504 13.1594 14.3197 13.4876 13.9915C13.8158 13.6633 14.0001 13.2182 14.0001 12.754V7.02745C14.0008 6.79755 13.9558 6.56981 13.8678 6.35743C13.7798 6.14504 13.6505 5.95224 13.4874 5.7902ZM8.75013 13.3374H5.25013V11.0425C5.25013 10.5784 5.4345 10.1333 5.76269 9.8051C6.09088 9.47691 6.536 9.29254 7.00013 9.29254C7.46426 9.29254 7.90938 9.47691 8.23757 9.8051C8.56576 10.1333 8.75013 10.5784 8.75013 11.0425V13.3374ZM12.8335 12.754C12.8335 12.9087 12.772 13.0571 12.6626 13.1665C12.5532 13.2759 12.4048 13.3374 12.2501 13.3374H9.9168V11.0425C9.9168 10.269 9.60951 9.52712 9.06253 8.98014C8.51554 8.43316 7.77368 8.12587 7.00013 8.12587C6.22658 8.12587 5.48472 8.43316 4.93774 8.98014C4.39075 9.52712 4.08346 10.269 4.08346 11.0425V13.3374H1.75013C1.59542 13.3374 1.44705 13.2759 1.33765 13.1665C1.22825 13.0571 1.1668 12.9087 1.1668 12.754V7.02745C1.16734 6.87286 1.22874 6.72469 1.33771 6.61504L5.7623 2.19162C6.09112 1.86433 6.53618 1.68059 7.00013 1.68059C7.46408 1.68059 7.90914 1.86433 8.23796 2.19162L12.6625 6.61679C12.7711 6.72601 12.8325 6.87346 12.8335 7.02745V12.754Z" fill="white"/>
</g>
<defs>
<clipPath id="clip0_389_2625">
<rect width="14" height="14" fill="white" transform="translate(0 0.5)"/>
</clipPath>
</defs>
</svg>
