<svg width="16" height="17" viewBox="0 0 16 17" fill="none" xmlns="http://www.w3.org/2000/svg">
<path d="M10.2665 7.08669L7.20654 4.02669C7.08163 3.90252 6.91266 3.83282 6.73653 3.83282C6.56041 3.83282 6.39144 3.90252 6.26653 4.02669C6.20405 4.08866 6.15445 4.1624 6.12061 4.24364C6.08676 4.32487 6.06934 4.41201 6.06934 4.50002C6.06934 4.58803 6.08676 4.67516 6.12061 4.7564C6.15445 4.83764 6.20405 4.91138 6.26653 4.97335L9.3332 8.02669C9.39569 8.08866 9.44528 8.1624 9.47913 8.24364C9.51298 8.32488 9.5304 8.41201 9.5304 8.50002C9.5304 8.58803 9.51298 8.67517 9.47913 8.75641C9.44528 8.83764 9.39569 8.91138 9.3332 8.97335L6.26653 12.0267C6.141 12.1513 6.07012 12.3208 6.0695 12.4977C6.06887 12.6746 6.13855 12.8445 6.2632 12.97C6.38785 13.0956 6.55727 13.1664 6.73418 13.1671C6.91109 13.1677 7.081 13.098 7.20654 12.9734L10.2665 9.91335C10.6411 9.53835 10.8514 9.03002 10.8514 8.50002C10.8514 7.97002 10.6411 7.46169 10.2665 7.08669Z" fill="#253653"/>
</svg>
