<svg width="28" height="29" viewBox="0 0 28 29" fill="none" xmlns="http://www.w3.org/2000/svg">
<g clip-path="url(#clip0_446_32)">
<path d="M26.8333 13.8141H1.16667C0.522334 13.8141 0 14.3364 0 14.9808C0 15.6251 0.522334 16.1474 1.16667 16.1474H26.8333C27.4777 16.1474 28 15.6251 28 14.9808C28 14.3364 27.4777 13.8141 26.8333 13.8141Z" fill="#003565"/>
<path d="M26.8333 5.64819H1.16667C0.522334 5.64819 0 6.17053 0 6.81486C0 7.45919 0.522334 7.98152 1.16667 7.98152H26.8333C27.4777 7.98152 28 7.45919 28 6.81486C28 6.17053 27.4777 5.64819 26.8333 5.64819Z" fill="#003565"/>
<path d="M26.8333 21.9811H1.16667C0.522334 21.9811 0 22.5035 0 23.1478C0 23.7921 0.522334 24.3145 1.16667 24.3145H26.8333C27.4777 24.3145 28 23.7921 28 23.1478C28 22.5035 27.4777 21.9811 26.8333 21.9811Z" fill="#003565"/>
</g>
<defs>
<clipPath id="clip0_446_32">
<rect width="28" height="28" fill="white" transform="translate(0 0.98114)"/>
</clipPath>
</defs>
</svg>
