<svg width="16" height="16" viewBox="0 0 16 16" fill="none" xmlns="http://www.w3.org/2000/svg">
<g clip-path="url(#clip0_399_2732)">
<path d="M7.99918 8C8.5266 8 9.04217 7.8436 9.4807 7.55059C9.91924 7.25757 10.261 6.84109 10.4629 6.35382C10.6647 5.86655 10.7175 5.33038 10.6146 4.81309C10.5117 4.29581 10.2577 3.82066 9.8848 3.44772C9.51186 3.07478 9.03671 2.8208 8.51942 2.71791C8.00214 2.61501 7.46596 2.66782 6.97869 2.86965C6.49142 3.07149 6.07495 3.41328 5.78193 3.85181C5.48891 4.29034 5.33252 4.80592 5.33252 5.33333C5.33252 6.04058 5.61347 6.71885 6.11356 7.21895C6.61366 7.71905 7.29194 8 7.99918 8ZM7.99918 4C8.26289 4 8.52068 4.0782 8.73994 4.22471C8.95921 4.37122 9.13011 4.57945 9.23102 4.82309C9.33194 5.06672 9.35834 5.33481 9.3069 5.59345C9.25545 5.8521 9.12846 6.08967 8.94199 6.27614C8.75552 6.46261 8.51795 6.5896 8.2593 6.64105C8.00066 6.69249 7.73257 6.66609 7.48894 6.56517C7.2453 6.46426 7.03707 6.29336 6.89056 6.07409C6.74405 5.85483 6.66585 5.59704 6.66585 5.33333C6.66585 4.97971 6.80633 4.64057 7.05637 4.39052C7.30642 4.14048 7.64556 4 7.99918 4ZM13.7725 6.10467L13.2932 5.94533C13.3794 5.19862 13.3069 4.4421 13.0803 3.72539C12.8536 3.00868 12.4781 2.34798 11.9782 1.78659C11.4783 1.22521 10.8654 0.77584 10.1797 0.467942C9.49394 0.160045 8.75087 0.000578321 7.99918 0C7.23769 0.00029398 6.4851 0.163796 5.79213 0.47949C5.09915 0.795184 4.48189 1.25574 3.98193 1.83012C3.48197 2.4045 3.11092 3.07936 2.89379 3.80925C2.67666 4.53913 2.61848 5.30707 2.72318 6.06133C2.08521 6.18029 1.49527 6.48128 1.02452 6.928C0.698632 7.23783 0.439562 7.61104 0.263235 8.02469C0.0869075 8.43834 -0.00295141 8.88368 -0.000817354 9.33333V12.05C0.00058371 12.7709 0.235044 13.472 0.667576 14.0487C1.10011 14.6254 1.70752 15.0468 2.39918 15.25L4.31252 15.85C4.63389 15.95 4.9686 16.0006 5.30518 16C5.61051 15.9996 5.91438 15.9579 6.20852 15.876L10.0619 14.736C10.4051 14.6423 10.7672 14.6423 11.1105 14.736L12.7019 15.2693C13.094 15.3648 13.5028 15.37 13.8973 15.2845C14.2918 15.199 14.6617 15.0251 14.9792 14.7758C15.2967 14.5266 15.5535 14.2085 15.7302 13.8455C15.9068 13.4826 15.9988 13.0843 15.9992 12.6807V9.248C15.9977 8.55827 15.7829 7.88589 15.3842 7.32303C14.9856 6.76017 14.4226 6.33437 13.7725 6.104V6.10467ZM5.17118 2.508C5.54202 2.13566 5.98274 1.84021 6.46804 1.63862C6.95334 1.43703 7.47368 1.33325 7.99918 1.33325C8.52469 1.33325 9.04503 1.43703 9.53033 1.63862C10.0156 1.84021 10.4563 2.13566 10.8272 2.508C11.5753 3.26076 11.9958 4.27854 11.9972 5.33982C11.9985 6.4011 11.5807 7.41997 10.8345 8.17467L8.46585 10.478C8.34222 10.5992 8.17599 10.6671 8.00285 10.6671C7.82971 10.6671 7.66348 10.5992 7.53985 10.478L5.17118 8.18467C4.4215 7.43026 4.00072 6.40989 4.00072 5.34633C4.00072 4.28277 4.4215 3.26241 5.17118 2.508ZM14.6659 12.6807C14.6663 12.8826 14.6206 13.0819 14.5323 13.2635C14.4441 13.4452 14.3155 13.6042 14.1565 13.7287C14.0063 13.8495 13.8312 13.9357 13.6439 13.9812C13.4565 14.0267 13.2615 14.0304 13.0725 13.992L11.5092 13.4667C10.9179 13.2968 10.2911 13.2931 9.69785 13.456L5.84185 14.5947C5.47137 14.6969 5.07928 14.6902 4.71252 14.5753L2.78318 13.9753C2.36562 13.8546 1.99849 13.6016 1.73692 13.2545C1.47534 12.9073 1.33344 12.4847 1.33252 12.05V9.33333C1.33102 9.06386 1.38466 8.79692 1.49013 8.54894C1.59561 8.30095 1.75069 8.07717 1.94585 7.89133C2.25135 7.60018 2.64053 7.41223 3.05852 7.354C3.32725 8.02012 3.72744 8.62527 4.23518 9.13333L6.61318 11.4353C6.98486 11.7993 7.48433 12.0031 8.00452 12.0031C8.5247 12.0031 9.02418 11.7993 9.39585 11.4353L11.7712 9.12667C12.303 8.59269 12.715 7.95159 12.9799 7.246L13.3379 7.36467C13.7261 7.50379 14.062 7.7593 14.2996 8.09636C14.5373 8.43341 14.6652 8.83558 14.6659 9.248V12.6807Z" fill="#005FB5"/>
</g>
<defs>
<clipPath id="clip0_399_2732">
<rect width="16" height="16" fill="white"/>
</clipPath>
</defs>
</svg>
