<svg width="16" height="17" viewBox="0 0 16 17" fill="none" xmlns="http://www.w3.org/2000/svg">
<g clip-path="url(#clip0_446_12)">
<path d="M15.4133 7.10672L12.8333 4.50006C12.7714 4.43757 12.6976 4.38797 12.6164 4.35413C12.5351 4.32028 12.448 4.30286 12.36 4.30286C12.272 4.30286 12.1849 4.32028 12.1036 4.35413C12.0224 4.38797 11.9486 4.43757 11.8867 4.50006C11.7625 4.62496 11.6928 4.79393 11.6928 4.97006C11.6928 5.14618 11.7625 5.31515 11.8867 5.44006L14.26 7.83339H0.666667C0.489856 7.83339 0.320286 7.90363 0.195262 8.02865C0.0702379 8.15367 0 8.32324 0 8.50005H0C0 8.67687 0.0702379 8.84644 0.195262 8.97146C0.320286 9.09648 0.489856 9.16672 0.666667 9.16672H14.3L11.8867 11.5734C11.8242 11.6354 11.7746 11.7091 11.7407 11.7903C11.7069 11.8716 11.6895 11.9587 11.6895 12.0467C11.6895 12.1347 11.7069 12.2219 11.7407 12.3031C11.7746 12.3843 11.8242 12.4581 11.8867 12.5201C11.9486 12.5825 12.0224 12.6321 12.1036 12.666C12.1849 12.6998 12.272 12.7173 12.36 12.7173C12.448 12.7173 12.5351 12.6998 12.6164 12.666C12.6976 12.6321 12.7714 12.5825 12.8333 12.5201L15.4133 9.93339C15.7879 9.55839 15.9982 9.05006 15.9982 8.52005C15.9982 7.99005 15.7879 7.48172 15.4133 7.10672Z" fill="white"/>
</g>
<defs>
<clipPath id="clip0_446_12">
<rect width="16" height="16" fill="white" transform="translate(0 0.5)"/>
</clipPath>
</defs>
</svg>
