<svg width="16" height="17" viewBox="0 0 16 17" fill="none" xmlns="http://www.w3.org/2000/svg">
<path d="M10.2665 7.08667L7.20654 4.02667C7.08163 3.9025 6.91266 3.83281 6.73653 3.83281C6.56041 3.83281 6.39144 3.9025 6.26653 4.02667C6.20405 4.08865 6.15445 4.16238 6.12061 4.24362C6.08676 4.32486 6.06934 4.412 6.06934 4.5C6.06934 4.58801 6.08676 4.67515 6.12061 4.75639C6.15445 4.83763 6.20405 4.91136 6.26653 4.97334L9.3332 8.02667C9.39569 8.08865 9.44528 8.16238 9.47913 8.24362C9.51298 8.32486 9.5304 8.412 9.5304 8.50001C9.5304 8.58801 9.51298 8.67515 9.47913 8.75639C9.44528 8.83763 9.39569 8.91136 9.3332 8.97334L6.26653 12.0267C6.141 12.1513 6.07012 12.3207 6.0695 12.4976C6.06887 12.6746 6.13855 12.8445 6.2632 12.97C6.38785 13.0955 6.55727 13.1664 6.73418 13.167C6.91109 13.1677 7.081 13.098 7.20654 12.9733L10.2665 9.91334C10.6411 9.53834 10.8514 9.03001 10.8514 8.50001C10.8514 7.97 10.6411 7.46167 10.2665 7.08667Z" fill="white"/>
</svg>
