<svg width="32" height="32" viewBox="0 0 32 32" fill="none" xmlns="http://www.w3.org/2000/svg">
<path d="M16.0364 0H15.9636C7.14713 0 0 7.14924 0 15.9683V16.0412C0 24.8602 7.14713 32.0094 15.9636 32.0094H16.0364C24.8529 32.0094 32 24.8602 32 16.0412V15.9683C32 7.14924 24.8529 0 16.0364 0Z" fill="white" fill-opacity="0.9"/>
<path d="M20.9514 6.51221H11.0497C8.31422 6.51221 6.08881 8.73828 6.08881 11.4746V20.5359C6.08881 23.2722 8.31422 25.4983 11.0497 25.4983H20.9514C23.687 25.4983 25.9124 23.2722 25.9124 20.5359V11.4746C25.9124 8.73828 23.687 6.51221 20.9514 6.51221ZM7.83887 11.4746C7.83887 9.70384 9.2795 8.26278 11.0497 8.26278H20.9514C22.7217 8.26278 24.1623 9.70384 24.1623 11.4746V20.5359C24.1623 22.3066 22.7217 23.7477 20.9514 23.7477H11.0497C9.2795 23.7477 7.83887 22.3066 7.83887 20.5359V11.4746Z" fill="black"/>
<path d="M16.0006 20.6199C18.5444 20.6199 20.6151 18.5497 20.6151 16.0041C20.6151 13.4584 18.5456 11.3882 16.0006 11.3882C13.4557 11.3882 11.3861 13.4584 11.3861 16.0041C11.3861 18.5497 13.4557 20.6199 16.0006 20.6199ZM16.0006 13.1399C17.5803 13.1399 18.8651 14.4251 18.8651 16.0052C18.8651 17.5853 17.5803 18.8705 16.0006 18.8705C14.421 18.8705 13.1362 17.5853 13.1362 16.0052C13.1362 14.4251 14.421 13.1399 16.0006 13.1399Z" fill="black"/>
<path d="M21.0422 12.1334C21.7272 12.1334 22.2855 11.576 22.2855 10.8897C22.2855 10.2034 21.7283 9.646 21.0422 9.646C20.3561 9.646 19.7989 10.2034 19.7989 10.8897C19.7989 11.576 20.3561 12.1334 21.0422 12.1334Z" fill="black"/>
</svg>
