<svg width="32" height="32" viewBox="0 0 32 32" fill="none" xmlns="http://www.w3.org/2000/svg">
<path d="M16.0364 0H15.9636C7.14714 0 0 7.14924 0 15.9683V16.0412C0 24.8602 7.14714 32.0094 15.9636 32.0094H16.0364C24.8529 32.0094 32 24.8602 32 16.0412V15.9683C32 7.14924 24.8529 0 16.0364 0Z" fill="white" fill-opacity="0.9"/>
<path d="M7.63148 10.6391C7.20994 10.2477 7.00031 9.76327 7.00031 9.18685C7.00031 8.61043 7.21106 8.10465 7.63148 7.71215C8.05302 7.32076 8.59564 7.12451 9.26046 7.12451C9.92528 7.12451 10.4466 7.32076 10.867 7.71215C11.2886 8.10353 11.4982 8.59585 11.4982 9.18685C11.4982 9.77785 11.2874 10.2477 10.867 10.6391C10.4455 11.0305 9.91071 11.2268 9.26046 11.2268C8.61022 11.2268 8.05302 11.0305 7.63148 10.6391ZM11.1439 12.8843V24.8837H7.35345V12.8843H11.1439Z" fill="black"/>
<path d="M23.762 14.0689C24.5883 14.966 25.0009 16.1974 25.0009 17.7652V24.671H21.401V18.2519C21.401 17.4613 21.1958 16.8467 20.7866 16.4093C20.3774 15.972 19.8258 15.7522 19.1352 15.7522C18.4446 15.7522 17.893 15.9708 17.4838 16.4093C17.0746 16.8467 16.8694 17.4613 16.8694 18.2519V24.671H13.2482V12.8499H16.8694V14.4176C17.236 13.8951 17.7304 13.4824 18.3515 13.1785C18.9726 12.8745 19.6711 12.7231 20.448 12.7231C21.8315 12.7231 22.9369 13.1717 23.762 14.0678V14.0689Z" fill="black"/>
</svg>
