<svg width="15" height="15" viewBox="0 0 15 15" fill="none" xmlns="http://www.w3.org/2000/svg">
<path d="M9.54161 1.521C9.29998 1.521 9.10411 1.71687 9.10411 1.9585C9.10411 2.20012 9.29998 2.396 9.54161 2.396H11.8749C11.9185 2.396 11.9612 2.39982 12.0027 2.40715L8.09406 6.3158C7.92321 6.48666 7.92321 6.76367 8.09406 6.93452C8.26492 7.10538 8.54193 7.10538 8.71278 6.93452L12.6 3.0473C12.6027 3.07288 12.6041 3.09886 12.6041 3.12516V5.4585C12.6041 5.70012 12.8 5.896 13.0416 5.896C13.2832 5.896 13.4791 5.70012 13.4791 5.4585V3.12516C13.4791 2.6928 13.3081 2.30038 13.0299 2.0119L13.028 2.00987C12.7363 1.70841 12.3275 1.521 11.8749 1.521H9.54161Z" fill="white"/>
<path d="M7.20834 2.10444L7.18641 2.10444C6.22363 2.10443 5.47126 2.10443 4.86945 2.15897C4.25707 2.21448 3.75776 2.32921 3.31459 2.58507C2.76922 2.89994 2.31635 3.35282 2.00148 3.89819C1.74562 4.34135 1.63088 4.84066 1.57538 5.45305C1.52084 6.05486 1.52084 6.80722 1.52084 7.77V7.81387C1.52084 8.77665 1.52084 9.52902 1.57538 10.1308C1.63088 10.7432 1.74562 11.2425 2.00148 11.6857C2.31635 12.2311 2.76922 12.6839 3.31459 12.9988C3.75776 13.2547 4.25707 13.3694 4.86945 13.4249C5.47126 13.4794 6.22362 13.4794 7.18639 13.4794H7.23029C8.19306 13.4794 8.94543 13.4794 9.54723 13.4249C10.1596 13.3694 10.6589 13.2547 11.1021 12.9988C11.6475 12.6839 12.1003 12.2311 12.4152 11.6857C12.6711 11.2425 12.7858 10.7432 12.8413 10.1308C12.8958 9.52902 12.8958 8.77666 12.8958 7.81389V7.79194C12.8958 7.55031 12.7 7.35444 12.4583 7.35444C12.2167 7.35444 12.0208 7.55031 12.0208 7.79194C12.0208 8.78133 12.0204 9.49413 11.9699 10.0518C11.9199 10.6035 11.8236 10.9604 11.6574 11.2482C11.4194 11.6605 11.0769 12.003 10.6646 12.241C10.3768 12.4072 10.02 12.5035 9.46825 12.5535C8.91054 12.604 8.19774 12.6044 7.20834 12.6044C6.21895 12.6044 5.50615 12.604 4.94843 12.5535C4.39673 12.5035 4.03989 12.4072 3.75209 12.241C3.33974 12.003 2.99732 11.6605 2.75925 11.2482C2.59309 10.9604 2.49681 10.6035 2.44681 10.0518C2.39626 9.49413 2.39584 8.78133 2.39584 7.79194C2.39584 6.80254 2.39626 6.08974 2.44681 5.53203C2.49681 4.98033 2.59309 4.62348 2.75925 4.33569C2.99732 3.92333 3.33974 3.58091 3.75209 3.34284C4.03989 3.17668 4.39673 3.08041 4.94843 3.0304C5.50615 2.97986 6.21895 2.97944 7.20834 2.97944C7.44997 2.97944 7.64584 2.78356 7.64584 2.54194C7.64584 2.30031 7.44997 2.10444 7.20834 2.10444Z" fill="white"/>
</svg>
