<svg width="16" height="17" viewBox="0 0 16 17" fill="none" xmlns="http://www.w3.org/2000/svg">
<path d="M8 0.5C6.41775 0.5 4.87103 0.969192 3.55544 1.84824C2.23985 2.72729 1.21447 3.97672 0.608967 5.43853C0.00346629 6.90034 -0.15496 8.50888 0.153721 10.0607C0.462403 11.6126 1.22433 13.038 2.34315 14.1569C3.46197 15.2757 4.88743 16.0376 6.43928 16.3463C7.99113 16.655 9.59966 16.4965 11.0615 15.891C12.5233 15.2855 13.7727 14.2602 14.6518 12.9446C15.5308 11.629 16 10.0823 16 8.5C15.9977 6.37897 15.1541 4.34547 13.6543 2.84568C12.1545 1.34589 10.121 0.502294 8 0.5V0.5ZM13.7647 5.16667H11.6173C11.1366 4.05266 10.5037 3.01072 9.73667 2.07067C11.4343 2.53262 12.8815 3.64498 13.7647 5.16667V5.16667ZM11 8.5C10.9945 9.17876 10.8876 9.85288 10.6827 10.5H5.31734C5.11244 9.85288 5.00548 9.17876 5 8.5C5.00548 7.82124 5.11244 7.14712 5.31734 6.5H10.6827C10.8876 7.14712 10.9945 7.82124 11 8.5V8.5ZM5.852 11.8333H10.148C9.58216 12.9505 8.85877 13.9806 8 14.892C7.14092 13.9808 6.4175 12.9507 5.852 11.8333V11.8333ZM5.852 5.16667C6.41785 4.04952 7.14123 3.01944 8 2.108C8.85909 3.01918 9.58251 4.04931 10.148 5.16667H5.852ZM6.26667 2.07067C5.49844 3.01052 4.86439 4.05247 4.38267 5.16667H2.23534C3.11924 3.64429 4.56778 2.53184 6.26667 2.07067V2.07067ZM1.64067 6.5H3.93334C3.76051 7.15276 3.67091 7.82476 3.66667 8.5C3.67091 9.17524 3.76051 9.84724 3.93334 10.5H1.64067C1.2309 9.19815 1.2309 7.80185 1.64067 6.5V6.5ZM2.23534 11.8333H4.38267C4.86439 12.9475 5.49844 13.9895 6.26667 14.9293C4.56778 14.4682 3.11924 13.3557 2.23534 11.8333V11.8333ZM9.73667 14.9293C10.5037 13.9893 11.1366 12.9473 11.6173 11.8333H13.7647C12.8815 13.355 11.4343 14.4674 9.73667 14.9293V14.9293ZM14.3593 10.5H12.0667C12.2395 9.84724 12.3291 9.17524 12.3333 8.5C12.3291 7.82476 12.2395 7.15276 12.0667 6.5H14.358C14.7678 7.80185 14.7678 9.19815 14.358 10.5H14.3593Z" fill="white"/>
</svg>
