<svg width="32" height="32" viewBox="0 0 32 32" fill="none" xmlns="http://www.w3.org/2000/svg">
<path d="M31.9978 16.0057C31.9978 24.0888 26.0078 30.7713 18.2265 31.8557C17.4989 31.9566 16.7545 32.0093 15.9989 32.0093C15.1267 32.0093 14.2702 31.9398 13.4361 31.8052C5.81838 30.5784 0 23.971 0 16.0057C0 7.16676 7.16368 0.000976562 16 0.000976562C24.8363 0.000976562 32 7.16676 32 16.0057H31.9978Z" fill="white" fill-opacity="0.9"/>
<path d="M6.48878 7.06006L13.8677 16.9284L6.44281 24.9521H8.11434L14.6155 17.9276L19.8677 24.9521H25.5549L17.7612 14.5286L24.6726 7.06006H23.0011L17.0146 13.5295L12.1771 7.06006H6.48989H6.48878ZM8.94617 8.29136H11.5583L23.0953 23.7208H20.4832L8.94617 8.29136Z" fill="black"/>
</svg>
