<svg width="20" height="12" viewBox="0 0 20 12" fill="none" xmlns="http://www.w3.org/2000/svg">
<path d="M0.733575 7.74158L3.95857 10.9999C4.03604 11.078 4.12821 11.14 4.22976 11.1823C4.33131 11.2246 4.44023 11.2464 4.55024 11.2464C4.66025 11.2464 4.76917 11.2246 4.87072 11.1823C4.97227 11.14 5.06444 11.078 5.14191 10.9999C5.22001 10.9224 5.28201 10.8303 5.32432 10.7287C5.36662 10.6272 5.38841 10.5183 5.38841 10.4083C5.38841 10.2982 5.36662 10.1893 5.32432 10.0878C5.28201 9.98622 5.22001 9.89405 5.14191 9.81658L2.17524 6.83325H19.1669C19.3879 6.83325 19.5999 6.74545 19.7562 6.58917C19.9124 6.43289 20.0002 6.22093 20.0002 5.99992C20.0002 5.7789 19.9124 5.56694 19.7562 5.41066C19.5999 5.25438 19.3879 5.16658 19.1669 5.16658H2.12524L5.14191 2.14992C5.28965 1.99494 5.37207 1.78903 5.37207 1.57492C5.37207 1.3608 5.28965 1.1549 5.14191 0.999917C5.06444 0.92181 4.97227 0.859814 4.87072 0.817507C4.76917 0.7752 4.66025 0.753418 4.55024 0.753418C4.44023 0.753418 4.33131 0.7752 4.22976 0.817507C4.12821 0.859814 4.03604 0.92181 3.95857 0.999917L0.733575 4.20825C0.265407 4.677 0.00244141 5.31241 0.00244141 5.97492C0.00244141 6.63742 0.265407 7.27283 0.733575 7.74158V7.74158Z" fill="#001FD0"/>
</svg>
