<svg width="512" height="512" viewBox="0 0 512 512" fill="none" xmlns="http://www.w3.org/2000/svg">
<g clip-path="url(#clip0_966_1088)">
<path d="M18.7766 300.586L101.337 384C103.32 385.999 105.679 387.586 108.279 388.669C110.879 389.753 113.667 390.31 116.483 390.31C119.3 390.31 122.088 389.753 124.688 388.669C127.287 387.586 129.647 385.999 131.63 384C133.629 382.017 135.217 379.657 136.3 377.057C137.383 374.458 137.94 371.669 137.94 368.853C137.94 366.037 137.383 363.249 136.3 360.649C135.217 358.049 133.629 355.69 131.63 353.706L55.6832 277.333H490.67C496.328 277.333 501.754 275.086 505.755 271.085C509.756 267.084 512.003 261.658 512.003 256C512.003 250.342 509.756 244.916 505.755 240.915C501.754 236.914 496.328 234.666 490.67 234.666H54.4033L131.63 157.44C135.412 153.472 137.522 148.201 137.522 142.72C137.522 137.238 135.412 131.967 131.63 128C129.647 126 127.287 124.413 124.688 123.33C122.088 122.247 119.3 121.689 116.483 121.689C113.667 121.689 110.879 122.247 108.279 123.33C105.679 124.413 103.32 126 101.337 128L18.7766 210.133C6.79148 222.133 0.0595703 238.4 0.0595703 255.36C0.0595703 272.32 6.79148 288.586 18.7766 300.586V300.586Z" fill="#003565"/>
</g>
<defs>
<clipPath id="clip0_966_1088">
<rect width="512" height="512" fill="white"/>
</clipPath>
</defs>
</svg>
