<svg width="512" height="512" viewBox="0 0 512 512" fill="none" xmlns="http://www.w3.org/2000/svg">
<g clip-path="url(#clip0_696_855)">
<path d="M255.995 162.939C237.586 162.939 219.591 168.398 204.284 178.625C188.978 188.853 177.048 203.389 170.003 220.397C162.958 237.405 161.115 256.119 164.706 274.175C168.298 292.23 177.163 308.815 190.18 321.832C203.197 334.849 219.782 343.714 237.837 347.305C255.892 350.896 274.607 349.053 291.614 342.008C308.622 334.964 323.159 323.034 333.386 307.727C343.614 292.421 349.073 274.425 349.073 256.016C349.044 231.339 339.229 207.681 321.78 190.232C304.33 172.782 280.672 162.967 255.995 162.939V162.939ZM255.995 285.094C250.244 285.094 244.623 283.388 239.841 280.193C235.059 276.998 231.332 272.457 229.131 267.144C226.931 261.83 226.355 255.984 227.477 250.343C228.599 244.703 231.368 239.522 235.435 235.455C239.501 231.389 244.682 228.62 250.323 227.498C255.963 226.376 261.81 226.951 267.123 229.152C272.436 231.353 276.977 235.08 280.172 239.862C283.367 244.643 285.073 250.265 285.073 256.016C285.067 263.726 282.002 271.119 276.55 276.571C271.098 282.023 263.705 285.088 255.995 285.094V285.094Z" fill="#737791"/>
<path d="M469.335 256C469.303 223.311 461.702 191.073 447.127 161.813L458.093 154.197C465.054 149.345 469.803 141.926 471.295 133.573C472.787 125.22 470.901 116.616 466.05 109.653V109.653C461.198 102.692 453.779 97.943 445.426 96.4508C437.072 94.9585 428.468 96.8452 421.506 101.696L410.519 109.333C377.946 74.953 334.828 52.4295 288.002 45.3332V31.9998C288.002 23.5129 284.631 15.3736 278.629 9.3724C272.628 3.37124 264.489 -0.000183105 256.002 -0.000183105C247.515 -0.000183105 239.376 3.37124 233.375 9.3724C227.373 15.3736 224.002 23.5129 224.002 31.9998V45.3332C177.176 52.4295 134.058 74.953 101.485 109.333L90.498 101.696C83.5355 96.8452 74.9315 94.9585 66.5782 96.4508C58.2249 97.943 50.8064 102.692 45.954 109.653V109.653C41.1033 116.616 39.2167 125.22 40.7089 133.573C42.2011 141.926 46.9501 149.345 53.9113 154.197L64.8766 161.813C50.2719 191.062 42.6692 223.307 42.6692 256C42.6692 288.693 50.2719 320.937 64.8766 350.187L53.9113 357.802C46.9501 362.655 42.2011 370.073 40.7089 378.427C39.2167 386.78 41.1033 395.384 45.954 402.347V402.347C50.8064 409.308 58.2249 414.057 66.5782 415.549C74.9315 417.041 83.5355 415.154 90.498 410.304L101.485 402.666C134.058 437.047 177.176 459.57 224.002 466.666V480C224.002 488.487 227.373 496.626 233.375 502.627C239.376 508.628 247.515 512 256.002 512C264.489 512 272.628 508.628 278.629 502.627C284.631 496.626 288.002 488.487 288.002 480V466.666C334.828 459.57 377.946 437.047 410.519 402.666L421.506 410.304C428.468 415.154 437.072 417.041 445.426 415.549C453.779 414.057 461.198 409.308 466.05 402.347C470.901 395.384 472.787 386.78 471.295 378.427C469.803 370.073 465.054 362.655 458.093 357.802L447.127 350.187C461.702 320.926 469.303 288.689 469.335 256V256ZM256.002 405.333C226.467 405.333 197.595 396.575 173.037 380.166C148.479 363.757 129.339 340.434 118.036 313.147C106.733 285.86 103.776 255.834 109.538 226.866C115.3 197.899 129.523 171.29 150.407 150.405C171.292 129.521 197.901 115.298 226.869 109.536C255.836 103.774 285.862 106.731 313.149 118.034C340.437 129.336 363.759 148.477 380.168 173.035C396.577 197.592 405.335 226.464 405.335 256C405.285 295.59 389.535 333.544 361.541 361.538C333.546 389.533 295.592 405.282 256.002 405.333V405.333Z" fill="#737791"/>
</g>
<defs>
<clipPath id="clip0_696_855">
<rect width="512" height="512" fill="white"/>
</clipPath>
</defs>
</svg>
