<svg width="512" height="512" viewBox="0 0 512 512" fill="none" xmlns="http://www.w3.org/2000/svg">
<g clip-path="url(#clip0_696_846)">
<path d="M149.334 245.333C149.334 236.846 152.705 228.707 158.707 222.706C164.708 216.705 172.847 213.333 181.334 213.333H245.334C253.821 213.333 261.96 216.705 267.961 222.706C273.963 228.707 277.334 236.846 277.334 245.333C277.334 253.82 273.963 261.959 267.961 267.961C261.96 273.962 253.821 277.333 245.334 277.333H181.334C172.847 277.333 164.708 273.962 158.707 267.961C152.705 261.959 149.334 253.82 149.334 245.333ZM181.334 170.666H330.667C339.154 170.666 347.294 167.295 353.295 161.294C359.296 155.293 362.667 147.153 362.667 138.666C362.667 130.18 359.296 122.04 353.295 116.039C347.294 110.038 339.154 106.666 330.667 106.666H181.334C172.847 106.666 164.708 110.038 158.707 116.039C152.705 122.04 149.334 130.18 149.334 138.666C149.334 147.153 152.705 155.293 158.707 161.294C164.708 167.295 172.847 170.666 181.334 170.666ZM448.001 426.112V488.874C448 493.439 446.646 497.901 444.109 501.696C441.573 505.492 437.968 508.45 433.751 510.196C429.534 511.943 424.893 512.4 420.416 511.51C415.939 510.62 411.826 508.422 408.598 505.194L384.001 480.597L359.403 505.194C356.175 508.422 352.063 510.62 347.586 511.51C343.108 512.4 338.468 511.943 334.251 510.196C330.033 508.45 326.428 505.492 323.892 501.696C321.356 497.901 320.001 493.439 320.001 488.874V426.112C300.696 411.583 286.909 390.919 280.906 367.515C274.903 344.111 277.042 319.362 286.97 297.335C296.899 275.308 314.027 257.315 335.538 246.313C357.049 235.312 381.663 231.957 405.334 236.8V117.333C405.334 103.188 399.715 89.6227 389.713 79.6208C379.711 69.6189 366.146 63.9998 352.001 63.9998L160.15 64.8105C153.134 64.7909 146.182 66.1559 139.694 68.8273C133.206 71.4988 127.309 75.4242 122.341 80.3786C117.373 85.333 113.431 91.219 110.741 97.6995C108.052 104.18 106.667 111.127 106.667 118.144V373.333C106.667 387.478 112.286 401.044 122.288 411.046C132.29 421.047 145.856 426.666 160.001 426.666H245.334C253.821 426.666 261.96 430.038 267.961 436.039C273.963 442.04 277.334 450.18 277.334 458.666C277.334 467.153 273.963 475.293 267.961 481.294C261.96 487.295 253.821 490.666 245.334 490.666H160.001C128.894 490.627 99.0728 478.252 77.0771 456.257C55.0814 434.261 42.7069 404.44 42.6674 373.333V118.144C42.7069 87.0372 55.0814 57.216 77.0771 35.2203C99.0728 13.2246 128.894 0.850014 160.001 0.810499L351.851 -0.000167847C382.98 0.0110918 412.833 12.3718 434.859 34.3694C456.884 56.3669 469.283 86.2042 469.334 117.333V277.994C477.736 289.091 483.852 301.744 487.33 315.221C490.807 328.698 491.576 342.731 489.592 356.507C487.608 370.283 482.91 383.529 475.771 395.477C468.631 407.425 459.192 417.837 448.001 426.112V426.112ZM341.334 341.333C341.334 349.772 343.836 358.021 348.525 365.037C353.213 372.054 359.877 377.523 367.673 380.752C375.469 383.981 384.048 384.826 392.325 383.18C400.601 381.534 408.204 377.47 414.171 371.503C420.138 365.536 424.201 357.934 425.848 349.657C427.494 341.38 426.649 332.802 423.42 325.005C420.19 317.209 414.722 310.545 407.705 305.857C400.689 301.169 392.439 298.666 384.001 298.666C372.685 298.666 361.832 303.162 353.831 311.163C345.829 319.165 341.334 330.017 341.334 341.333Z" fill="#737791"/>
</g>
<defs>
<clipPath id="clip0_696_846">
<rect width="512" height="512" fill="white"/>
</clipPath>
</defs>
</svg>
