<svg width="512" height="512" viewBox="0 0 512 512" fill="none" xmlns="http://www.w3.org/2000/svg">
<g clip-path="url(#clip0_681_876)">
<path d="M394.668 202.667C403.155 202.667 411.295 199.295 417.296 193.294C423.297 187.293 426.668 179.153 426.668 170.667V156.011C426.629 125.962 414.675 97.1554 393.427 75.9078C372.179 54.6603 343.373 42.706 313.324 42.6665H288.002V31.9998C288.002 23.5129 284.63 15.3736 278.629 9.37243C272.628 3.37127 264.489 -0.000152588 256.002 -0.000152588C247.515 -0.000152588 239.375 3.37127 233.374 9.37243C227.373 15.3736 224.002 23.5129 224.002 31.9998V42.6665H198.679C171.468 42.626 145.15 52.3762 124.534 70.1361C103.918 87.8959 90.3786 112.48 86.3902 139.397C82.4018 166.315 88.2302 193.768 102.811 216.743C117.391 239.718 139.751 256.681 165.804 264.533L224.002 280.448V405.333H198.679C185.597 405.316 173.056 400.112 163.806 390.862C154.556 381.612 149.352 369.071 149.335 355.989V341.333C149.335 332.846 145.964 324.707 139.962 318.706C133.961 312.705 125.822 309.333 117.335 309.333C108.848 309.333 100.709 312.705 94.7075 318.706C88.7064 324.707 85.335 332.846 85.335 341.333V355.989C85.3745 386.038 97.3287 414.844 118.576 436.092C139.824 457.339 168.63 469.294 198.679 469.333H224.002V480C224.002 488.487 227.373 496.626 233.374 502.627C239.375 508.628 247.515 512 256.002 512C264.489 512 272.628 508.628 278.629 502.627C284.63 496.626 288.002 488.487 288.002 480V469.333H313.324C340.535 469.374 366.853 459.623 387.469 441.864C408.086 424.104 421.625 399.52 425.613 372.602C429.602 345.685 423.773 318.231 409.193 295.256C394.612 272.281 372.253 255.318 346.199 247.467L288.002 231.595V106.667H313.324C326.406 106.683 338.947 111.888 348.197 121.138C357.447 130.388 362.651 142.929 362.668 156.011V170.667C362.668 179.153 366.04 187.293 372.041 193.294C378.042 199.295 386.181 202.667 394.668 202.667ZM328.151 308.885C339.405 312.432 349.017 319.892 355.244 329.915C361.472 339.938 363.903 351.86 362.098 363.521C360.292 375.182 354.369 385.811 345.402 393.481C336.435 401.152 325.018 405.356 313.218 405.333H288.002V297.92L328.151 308.885ZM224.002 214.08L183.852 203.115C172.607 199.571 163.001 192.119 156.773 182.107C150.545 172.095 148.106 160.185 149.898 148.531C151.689 136.877 157.593 126.25 166.54 118.571C175.488 110.892 186.888 106.669 198.679 106.667H224.002V214.08Z" fill="#737791"/>
</g>
<defs>
<clipPath id="clip0_681_876">
<rect width="512" height="512" fill="white"/>
</clipPath>
</defs>
</svg>
