<svg width="512" height="513" viewBox="0 0 512 513" fill="none" xmlns="http://www.w3.org/2000/svg">
<g clip-path="url(#clip0_840_846)">
<path d="M490.667 96.5C490.667 78.827 476.34 64.5 458.667 64.5H378.112C364.632 26.257 328.549 0.63 288 0.5H224C183.451 0.63 147.368 26.257 133.888 64.5H53.333C35.66 64.5 21.333 78.827 21.333 96.5C21.333 114.173 35.66 128.5 53.333 128.5H64V395.167C64 459.968 116.532 512.5 181.333 512.5H330.666C395.468 512.5 448 459.968 448 395.167V128.5H458.667C476.34 128.5 490.667 114.173 490.667 96.5ZM384 395.167C384 424.622 360.122 448.5 330.667 448.5H181.333C151.878 448.5 128 424.622 128 395.167V128.5H384V395.167Z" fill="white"/>
<path d="M202.667 384.5C220.34 384.5 234.667 370.173 234.667 352.5V224.5C234.667 206.827 220.34 192.5 202.667 192.5C184.994 192.5 170.667 206.827 170.667 224.5V352.5C170.667 370.173 184.994 384.5 202.667 384.5Z" fill="white"/>
<path d="M309.333 384.5C327.006 384.5 341.333 370.173 341.333 352.5V224.5C341.333 206.827 327.006 192.5 309.333 192.5C291.66 192.5 277.333 206.827 277.333 224.5V352.5C277.333 370.173 291.66 384.5 309.333 384.5Z" fill="white"/>
</g>
<defs>
<clipPath id="clip0_840_846">
<rect width="512" height="512" fill="white" transform="translate(0 0.5)"/>
</clipPath>
</defs>
</svg>
