<svg width="512" height="512" viewBox="0 0 512 512" fill="none" xmlns="http://www.w3.org/2000/svg">
<g clip-path="url(#clip0_645_865)">
<path d="M309.334 149.333H362.667V202.666C362.667 220.339 376.994 234.666 394.667 234.666C412.34 234.666 426.667 220.339 426.667 202.666V149.333H480.001C497.674 149.333 512.001 135.006 512.001 117.333C512.001 99.66 497.674 85.333 480.001 85.333H426.668V32C426.668 14.327 412.341 0 394.668 0C376.995 0 362.668 14.327 362.668 32V85.333H309.335C291.662 85.333 277.335 99.66 277.335 117.333C277.335 135.006 291.661 149.333 309.334 149.333Z" fill="#737791"/>
<path d="M117.333 0C52.532 0 0 52.532 0 117.333C0 182.134 52.532 234.666 117.333 234.666C182.134 234.666 234.666 182.134 234.666 117.333C234.596 52.561 182.106 0.071 117.333 0ZM117.333 170.667C87.878 170.667 64 146.789 64 117.333C64 87.877 87.878 64 117.333 64C146.788 64 170.666 87.878 170.666 117.333C170.666 146.788 146.789 170.667 117.333 170.667Z" fill="#737791"/>
<path d="M117.333 277.333C52.532 277.333 0 329.865 0 394.667C0 459.469 52.532 512 117.333 512C182.134 512 234.666 459.468 234.666 394.667C234.596 329.895 182.106 277.404 117.333 277.333ZM117.333 448C87.878 448 64 424.122 64 394.667C64 365.212 87.878 341.334 117.333 341.334C146.788 341.334 170.666 365.212 170.666 394.667C170.666 424.122 146.789 448 117.333 448Z" fill="#737791"/>
<path d="M394.668 277.333C329.867 277.333 277.335 329.865 277.335 394.666C277.335 459.467 329.866 512 394.668 512C459.47 512 512.001 459.468 512.001 394.667C511.93 329.895 459.44 277.404 394.668 277.333ZM394.668 448C365.213 448 341.335 424.122 341.335 394.667C341.335 365.212 365.213 341.334 394.668 341.334C424.123 341.334 448.001 365.211 448.001 394.667C448.001 424.123 424.123 448 394.668 448Z" fill="#737791"/>
</g>
<defs>
<clipPath id="clip0_645_865">
<rect width="512" height="512" fill="white"/>
</clipPath>
</defs>
</svg>
