<svg width="512" height="512" viewBox="0 0 512 512" fill="none" xmlns="http://www.w3.org/2000/svg">
<g clip-path="url(#clip0_645_856)">
<path d="M158.987 299.038C68.0724 307.255 -1.19143 384.076 0.0155346 475.352V479.981C0.0155346 497.653 14.3421 511.98 32.0145 511.98C49.687 511.98 64.0135 497.653 64.0135 479.981V474.072C63.0516 418.029 104.41 370.237 160.011 363.143C218.702 357.323 270.999 400.183 276.819 458.874C277.163 462.344 277.337 465.828 277.34 469.315V479.982C277.34 497.654 291.666 511.981 309.339 511.981C327.011 511.981 341.338 497.654 341.338 479.982V469.315C341.234 374.955 264.655 298.546 170.296 298.65C166.522 298.654 162.75 298.784 158.987 299.038Z" fill="#737791"/>
<path d="M170.677 256.004C241.366 256.004 298.673 198.698 298.673 128.008C298.673 57.3179 241.366 0.0117188 170.677 0.0117188C99.9869 0.0117188 42.6807 57.3179 42.6807 128.008C42.7517 198.669 100.016 255.933 170.677 256.004ZM170.677 64.0097C206.022 64.0097 234.675 92.6628 234.675 128.008C234.675 163.353 206.022 192.006 170.677 192.006C135.332 192.006 106.679 163.353 106.679 128.008C106.679 92.6628 135.332 64.0097 170.677 64.0097Z" fill="#737791"/>
<path d="M480.003 213.342H448.004V181.343C448.004 163.671 433.678 149.344 416.005 149.344C398.333 149.344 384.006 163.671 384.006 181.343V213.342H352.008C334.335 213.342 320.009 227.669 320.009 245.341C320.009 263.014 334.335 277.34 352.008 277.34H384.006V309.339C384.006 327.012 398.333 341.338 416.005 341.338C433.678 341.338 448.004 327.012 448.004 309.339V277.34H480.003C497.676 277.34 512.002 263.014 512.002 245.341C512.002 227.669 497.676 213.342 480.003 213.342Z" fill="#737791"/>
</g>
<defs>
<clipPath id="clip0_645_856">
<rect width="512" height="512" fill="white"/>
</clipPath>
</defs>
</svg>
