<svg width="512" height="512" viewBox="0 0 512 512" fill="none" xmlns="http://www.w3.org/2000/svg">
<g clip-path="url(#clip0_645_862)">
<path d="M448 512H64C47.0261 512 30.7475 505.257 18.7452 493.255C6.74284 481.253 0 464.974 0 448C0 431.026 6.74284 414.747 18.7452 402.745C30.7475 390.743 47.0261 384 64 384H448C464.974 384 481.253 390.743 493.255 402.745C505.257 414.747 512 431.026 512 448C512 464.974 505.257 481.253 493.255 493.255C481.253 505.257 464.974 512 448 512ZM512 288C512 280.996 510.62 274.061 507.94 267.59C505.26 261.12 501.332 255.24 496.379 250.288C491.427 245.335 485.547 241.407 479.076 238.726C472.606 236.046 465.671 234.667 458.667 234.667H53.3333C39.1885 234.667 25.6229 240.286 15.621 250.288C5.61903 260.29 0 273.855 0 288C0 302.145 5.61903 315.71 15.621 325.712C25.6229 335.714 39.1885 341.333 53.3333 341.333H458.667C465.671 341.333 472.606 339.954 479.076 337.274C485.547 334.593 491.427 330.665 496.379 325.712C501.332 320.76 505.26 314.88 507.94 308.41C510.62 301.939 512 295.004 512 288V288ZM512 149.333C512 138.017 507.505 127.165 499.503 119.163C491.502 111.162 480.649 106.667 469.333 106.667H42.6667C31.3508 106.667 20.4983 111.162 12.4968 119.163C4.49523 127.165 0 138.017 0 149.333C0 160.649 4.49523 171.502 12.4968 179.503C20.4983 187.505 31.3508 192 42.6667 192H469.333C480.649 192 491.502 187.505 499.503 179.503C507.505 171.502 512 160.649 512 149.333ZM512 32C512 23.5131 508.629 15.3737 502.627 9.37258C496.626 3.37142 488.487 0 480 0L32 0C23.5131 0 15.3737 3.37142 9.37258 9.37258C3.37142 15.3737 0 23.5131 0 32C0 40.4869 3.37142 48.6263 9.37258 54.6274C15.3737 60.6286 23.5131 64 32 64H480C488.487 64 496.626 60.6286 502.627 54.6274C508.629 48.6263 512 40.4869 512 32Z" fill="#737791"/>
</g>
<defs>
<clipPath id="clip0_645_862">
<rect width="512" height="512" fill="white"/>
</clipPath>
</defs>
</svg>
