<svg width="512" height="512" viewBox="0 0 512 512" fill="none" xmlns="http://www.w3.org/2000/svg">
<g clip-path="url(#clip0_696_849)">
<path d="M117.333 448C103.188 448 89.6229 442.381 79.621 432.379C69.619 422.377 64 408.812 64 394.667V32C64 23.5131 60.6286 15.3737 54.6274 9.37258C48.6263 3.37142 40.4869 0 32 0V0C23.5131 0 15.3737 3.37142 9.37258 9.37258C3.37142 15.3737 0 23.5131 0 32L0 394.667C0 425.785 12.3619 455.63 34.3661 477.634C56.3704 499.638 86.2146 512 117.333 512H480C488.487 512 496.626 508.629 502.627 502.627C508.629 496.626 512 488.487 512 480C512 471.513 508.629 463.374 502.627 457.373C496.626 451.371 488.487 448 480 448H117.333Z" fill="#737791"/>
<path d="M416 384C424.487 384 432.626 380.629 438.627 374.627C444.629 368.626 448 360.487 448 352V224C448 215.513 444.629 207.374 438.627 201.373C432.626 195.371 424.487 192 416 192C407.513 192 399.374 195.371 393.373 201.373C387.371 207.374 384 215.513 384 224V352C384 360.487 387.371 368.626 393.373 374.627C399.374 380.629 407.513 384 416 384Z" fill="#737791"/>
<path d="M160 384C168.487 384 176.626 380.629 182.627 374.627C188.629 368.626 192 360.487 192 352V224C192 215.513 188.629 207.374 182.627 201.373C176.626 195.371 168.487 192 160 192C151.513 192 143.374 195.371 137.373 201.373C131.371 207.374 128 215.513 128 224V352C128 360.487 131.371 368.626 137.373 374.627C143.374 380.629 151.513 384 160 384Z" fill="#737791"/>
<path d="M288 383.987C296.487 383.987 304.626 380.615 310.627 374.614C316.629 368.613 320 360.474 320 351.987V117.32C320 108.833 316.629 100.694 310.627 94.6926C304.626 88.6914 296.487 85.32 288 85.32C279.513 85.32 271.374 88.6914 265.373 94.6926C259.371 100.694 256 108.833 256 117.32V351.987C256 360.474 259.371 368.613 265.373 374.614C271.374 380.615 279.513 383.987 288 383.987Z" fill="#737791"/>
</g>
<defs>
<clipPath id="clip0_696_849">
<rect width="512" height="512" fill="white"/>
</clipPath>
</defs>
</svg>
