<svg width="512" height="512" viewBox="0 0 512 512" fill="none" xmlns="http://www.w3.org/2000/svg">
<path d="M395.864 242.879H298.904C295.005 242.893 291.141 242.137 287.535 240.654C283.929 239.171 280.651 236.99 277.89 234.237C275.129 231.483 272.938 228.212 271.445 224.61C269.952 221.008 269.184 217.147 269.187 213.247V115.903C269.214 104.696 266.668 93.633 261.745 83.5654C256.822 73.4977 249.654 64.6944 240.792 57.8339C232.325 51.1576 222.439 46.5112 211.896 44.2516C201.352 41.992 190.431 42.1793 179.971 44.7992C139.254 54.9342 101.956 75.6949 71.8881 104.961C41.8198 134.227 20.0581 170.949 8.82574 211.377C-2.40661 251.805 -2.7071 294.491 7.95496 335.073C18.617 375.655 39.8595 412.68 69.5129 442.367C99.1662 472.053 136.168 493.337 176.738 504.044C217.308 514.751 259.994 514.498 300.434 503.311C340.875 492.124 377.622 470.403 406.921 440.367C436.22 410.331 457.023 373.057 467.203 332.351C469.847 321.87 470.048 310.922 467.792 300.351C465.536 289.781 460.882 279.869 454.19 271.381C447.251 262.534 438.398 255.375 428.297 250.438C418.195 245.502 407.107 242.918 395.864 242.879ZM405.102 316.671C397.707 346.433 382.539 373.696 361.149 395.672C339.76 417.647 312.917 433.547 283.366 441.745C253.816 449.942 222.618 450.143 192.964 442.326C163.311 434.509 136.266 418.956 114.595 397.257C92.9252 375.559 77.4078 348.493 69.6305 318.829C61.8532 289.165 62.0951 257.967 70.3315 228.428C78.5679 198.888 94.5032 172.066 116.507 150.706C138.511 129.346 165.794 114.214 195.566 106.858C196.068 106.732 196.584 106.668 197.102 106.666C198.667 106.725 200.168 107.303 201.368 108.309C202.521 109.215 203.456 110.367 204.105 111.681C204.755 112.995 205.103 114.438 205.123 115.903V213.205C205.12 225.509 207.543 237.694 212.252 249.062C216.962 260.43 223.866 270.758 232.57 279.456C241.274 288.154 251.607 295.051 262.978 299.753C274.349 304.455 286.535 306.869 298.84 306.858H395.8C397.304 306.869 398.785 307.22 400.134 307.885C401.483 308.55 402.663 309.512 403.587 310.698C404.304 311.497 404.816 312.458 405.08 313.498C405.344 314.538 405.351 315.627 405.102 316.671V316.671Z" fill="#737791"/>
<path d="M504.559 158.846C494.737 122.739 475.657 89.8221 449.207 63.3533C422.757 36.8846 389.854 17.7813 353.754 7.93404C347.38 6.12812 340.675 5.82055 334.162 7.03536C327.65 8.25017 321.507 10.9544 316.213 14.9369C310.919 18.9193 306.617 24.072 303.645 29.9923C300.672 35.9126 299.108 42.4401 299.076 49.0647V149.331C299.076 166.305 305.819 182.584 317.822 194.586C329.824 206.589 346.103 213.331 363.076 213.331H463.748C470.333 213.268 476.815 211.687 482.69 208.712C488.565 205.737 493.674 201.448 497.622 196.177C501.57 190.906 504.25 184.796 505.453 178.322C506.656 171.848 506.35 165.183 504.559 158.846V158.846Z" fill="#737791"/>
</svg>
