<svg width="512" height="512" viewBox="0 0 512 512" fill="none" xmlns="http://www.w3.org/2000/svg">
<path d="M103.744 60.9013L136.81 51.4719L146.24 18.4053C147.759 13.0993 150.964 8.4323 155.371 5.1099C159.778 1.78751 165.147 -0.00956726 170.666 -0.00956726C176.185 -0.00956726 181.554 1.78751 185.961 5.1099C190.368 8.4323 193.574 13.0993 195.093 18.4053L204.522 51.4719L237.589 60.9013C242.895 62.4203 247.562 65.6257 250.884 70.0328C254.207 74.4398 256.004 79.8088 256.004 85.3279C256.004 90.847 254.207 96.216 250.884 100.623C247.562 105.03 242.895 108.236 237.589 109.755L204.522 119.184L195.093 152.251C193.574 157.557 190.368 162.224 185.961 165.546C181.554 168.868 176.185 170.665 170.666 170.665C165.147 170.665 159.778 168.868 155.371 165.546C150.964 162.224 147.759 157.557 146.24 152.251L136.81 119.184L103.744 109.755C98.4376 108.236 93.7706 105.03 90.4482 100.623C87.1258 96.216 85.3287 90.847 85.3287 85.3279C85.3287 79.8088 87.1258 74.4398 90.4482 70.0328C93.7706 65.6257 98.4376 62.4203 103.744 60.9013V60.9013ZM493.589 316.901L460.522 307.472L451.093 274.405C449.574 269.099 446.368 264.432 441.961 261.11C437.554 257.788 432.185 255.99 426.666 255.99C421.147 255.99 415.778 257.788 411.371 261.11C406.964 264.432 403.759 269.099 402.24 274.405L392.81 307.472L359.744 316.901C354.438 318.42 349.771 321.626 346.448 326.033C343.126 330.44 341.329 335.809 341.329 341.328C341.329 346.847 343.126 352.216 346.448 356.623C349.771 361.03 354.438 364.236 359.744 365.755L392.81 375.184L402.24 408.251C403.759 413.557 406.964 418.224 411.371 421.546C415.778 424.868 421.147 426.665 426.666 426.665C432.185 426.665 437.554 424.868 441.961 421.546C446.368 418.224 449.574 413.557 451.093 408.251L460.522 375.184L493.589 365.755C498.895 364.236 503.562 361.03 506.884 356.623C510.207 352.216 512.004 346.847 512.004 341.328C512.004 335.809 510.207 330.44 506.884 326.033C503.562 321.626 498.895 318.42 493.589 316.901V316.901ZM378.773 95.9946L407.701 104.251L416 133.2C417.35 137.812 420.159 141.862 424.005 144.743C427.851 147.624 432.527 149.182 437.333 149.182C442.138 149.182 446.815 147.624 450.661 144.743C454.507 141.862 457.316 137.812 458.666 133.2L466.922 104.293L495.893 95.9946C500.505 94.644 504.555 91.8352 507.436 87.9891C510.317 84.1431 511.875 79.4669 511.875 74.6613C511.875 69.8557 510.317 65.1795 507.436 61.3334C504.555 57.4873 500.505 54.6786 495.893 53.3279L466.965 45.0719L458.666 16.1013C457.316 11.4894 454.507 7.43933 450.661 4.55807C446.815 1.67681 442.138 0.119501 437.333 0.119501C432.527 0.119501 427.851 1.67681 424.005 4.55807C420.159 7.43933 417.35 11.4894 416 16.1013L407.744 45.0293L378.773 53.3279C374.161 54.6786 370.111 57.4873 367.23 61.3334C364.348 65.1795 362.791 69.8557 362.791 74.6613C362.791 79.4669 364.348 84.1431 367.23 87.9891C370.111 91.8352 374.161 94.644 378.773 95.9946V95.9946ZM365.973 269.819L142.634 487.76C126.904 503.331 105.649 512.043 83.5156 511.991C61.3819 511.939 40.1685 503.128 24.5115 487.483C8.83449 471.769 0.0302734 450.479 0.0302734 428.283C0.0302734 406.086 8.83449 384.796 24.5115 369.083L249.024 150.032C260.838 138.493 275.803 130.707 292.033 127.655C308.263 124.603 325.034 126.421 340.233 132.88C355.432 139.339 368.38 150.151 377.448 163.954C386.515 177.756 391.296 193.934 391.189 210.448C391.157 221.536 388.905 232.505 384.567 242.709C380.229 252.913 373.892 262.145 365.93 269.861L365.973 269.819ZM234.133 309.051L206.208 281.211L69.4822 414.608C65.8921 418.324 63.9104 423.305 63.9663 428.472C64.0222 433.639 66.1112 438.576 69.7809 442.213C73.5272 445.809 78.5188 447.817 83.7115 447.817C88.9043 447.817 93.8959 445.809 97.6422 442.213L234.133 309.051ZM327.232 210.021C327.254 206.134 326.127 202.327 323.992 199.079C321.857 195.831 318.809 193.286 315.232 191.766C311.654 190.245 307.707 189.816 303.887 190.532C300.066 191.248 296.543 193.078 293.76 195.792L252.053 236.475L279.936 264.357L321.258 223.995C323.12 222.181 324.603 220.016 325.621 217.624C326.639 215.233 327.172 212.663 327.189 210.064L327.232 210.021Z" fill="white"/>
</svg>
