<svg width="512" height="512" viewBox="0 0 512 512" fill="none" xmlns="http://www.w3.org/2000/svg">
<g clip-path="url(#clip0_819_846)">
<path d="M266.667 170.667C275.154 170.667 283.293 167.295 289.294 161.294C295.295 155.293 298.667 147.154 298.667 138.667V121.6C298.667 106.324 304.735 91.6727 315.537 80.8706C326.339 70.0685 340.99 64 356.267 64L390.4 64C405.676 64 420.327 70.0685 431.129 80.8706C441.931 91.6727 448 106.324 448 121.6L448 390.4C448 405.676 441.931 420.327 431.129 431.129C420.327 441.931 405.676 448 390.4 448H356.267C340.99 448 326.339 441.931 315.537 431.129C304.735 420.327 298.667 405.676 298.667 390.4V373.333C298.667 364.846 295.295 356.707 289.294 350.706C283.293 344.705 275.154 341.333 266.667 341.333C258.18 341.333 250.04 344.705 244.039 350.706C238.038 356.707 234.667 364.846 234.667 373.333L234.667 390.4C234.701 422.64 247.523 453.55 270.32 476.347C293.117 499.144 324.027 511.966 356.267 512L390.4 512C422.64 511.966 453.55 499.144 476.347 476.347C499.144 453.55 511.966 422.64 512 390.4L512 121.6C511.966 89.3601 499.144 58.4503 476.347 35.6532C453.55 12.8561 422.64 0.033868 390.4 -1.52588e-05H356.267C324.027 0.033868 293.117 12.8561 270.32 35.6532C247.523 58.4503 234.701 89.3601 234.667 121.6L234.667 138.667C234.667 147.154 238.038 155.293 244.039 161.294C250.04 167.295 258.18 170.667 266.667 170.667Z" fill="#E02525"/>
<path d="M30.7019 308.815L128.537 406.65C131.509 409.621 135.038 411.978 138.921 413.585C142.804 415.192 146.965 416.019 151.168 416.018C155.371 416.017 159.532 415.188 163.414 413.579C167.297 411.97 170.824 409.612 173.795 406.639C179.795 400.636 183.165 392.495 183.163 384.008C183.162 379.805 182.334 375.644 180.724 371.761C179.115 367.879 176.757 364.352 173.785 361.381L101.017 288.613L362.67 288.015C371.157 288.015 379.296 284.644 385.297 278.643C391.299 272.642 394.67 264.502 394.67 256.015C394.67 247.528 391.299 239.389 385.297 233.388C379.296 227.387 371.157 224.015 362.67 224.015V224.015L99.8859 224.613L173.849 150.65C179.852 144.65 183.225 136.511 183.227 128.023C183.229 119.535 179.86 111.394 173.859 105.391C167.859 99.3883 159.72 96.0146 151.232 96.0126C142.744 96.0106 134.604 99.3804 128.601 105.381L30.7659 203.215C16.7791 217.224 8.91795 236.207 8.90595 256.002C8.89396 275.798 16.7321 294.79 30.7019 308.815V308.815Z" fill="#E02525"/>
</g>
<defs>
<clipPath id="clip0_819_846">
<rect width="512" height="512" fill="white" transform="matrix(-1 0 0 -1 512 512)"/>
</clipPath>
</defs>
</svg>
