<svg width="64" height="64" viewBox="0 0 64 64" fill="none" xmlns="http://www.w3.org/2000/svg">
<g clip-path="url(#clip0_592_4944)">
<path d="M32 0C25.671 0 19.4841 1.87677 14.2218 5.39297C8.95939 8.90918 4.85787 13.9069 2.43587 19.7541C0.0138652 25.6014 -0.619842 32.0355 0.614885 38.2429C1.84961 44.4503 4.89732 50.1521 9.3726 54.6274C13.8479 59.1027 19.5497 62.1504 25.7571 63.3851C31.9645 64.6199 38.3987 63.9862 44.2459 61.5642C50.0931 59.1421 55.0908 55.0406 58.607 49.7783C62.1232 44.5159 64 38.329 64 32C63.9908 23.5159 60.6165 15.3819 54.6173 9.38272C48.6181 3.38354 40.4841 0.00917622 32 0V0ZM55.0587 18.6667H46.4694C44.5466 14.2106 42.0149 10.0429 38.9467 6.28267C45.7373 8.13047 51.5262 12.5799 55.0587 18.6667ZM44 32C43.9781 34.715 43.5503 37.4115 42.7307 40H21.2693C20.4497 37.4115 20.0219 34.715 20 32C20.0219 29.285 20.4497 26.5885 21.2693 24H42.7307C43.5503 26.5885 43.9781 29.285 44 32ZM23.408 45.3333H40.592C38.3286 49.8019 35.4351 53.9222 32 57.568C28.5637 53.9233 25.67 49.8028 23.408 45.3333ZM23.408 18.6667C25.6714 14.1981 28.5649 10.0778 32 6.432C35.4364 10.0767 38.33 14.1972 40.592 18.6667H23.408ZM25.0667 6.28267C21.9938 10.0421 19.4576 14.2099 17.5307 18.6667H8.94135C12.477 12.5772 18.2711 8.12735 25.0667 6.28267ZM6.56268 24H15.7333C15.042 26.6111 14.6836 29.299 14.6667 32C14.6836 34.701 15.042 37.389 15.7333 40H6.56268C4.92359 34.7926 4.92359 29.2074 6.56268 24ZM8.94135 45.3333H17.5307C19.4576 49.7901 21.9938 53.9579 25.0667 57.7173C18.2711 55.8727 12.477 51.4229 8.94135 45.3333ZM38.9467 57.7173C42.0149 53.9571 44.5466 49.7894 46.4694 45.3333H55.0587C51.5262 51.4201 45.7373 55.8695 38.9467 57.7173ZM57.4373 40H48.2667C48.958 37.389 49.3164 34.701 49.3334 32C49.3164 29.299 48.958 26.6111 48.2667 24H57.432C59.0711 29.2074 59.0711 34.7926 57.432 40H57.4373Z" fill="white"/>
</g>
<defs>
<clipPath id="clip0_592_4944">
<rect width="64" height="64" fill="white"/>
</clipPath>
</defs>
</svg>
