<svg width="24" height="25" viewBox="0 0 24 25" fill="none" xmlns="http://www.w3.org/2000/svg">
<path d="M6.11984 9.50002H17.2898C17.4885 9.49886 17.6829 9.55688 17.8485 9.66669C18.014 9.77649 18.143 9.93309 18.2192 10.1165C18.2954 10.3 18.3152 10.502 18.2761 10.6967C18.237 10.8914 18.1409 11.0701 17.9998 11.21L12.4098 16.79C12.2225 16.9763 11.969 17.0808 11.7048 17.0808C11.4407 17.0808 11.1872 16.9763 10.9998 16.79L5.40984 11.21C5.26881 11.0701 5.17263 10.8914 5.13356 10.6967C5.09449 10.502 5.1143 10.3 5.19047 10.1165C5.26664 9.93309 5.39571 9.77649 5.56122 9.66669C5.72674 9.55688 5.92122 9.49886 6.11984 9.50002Z" fill="#374957"/>
</svg>
