<svg width="19" height="18" viewBox="0 0 19 18" fill="none" xmlns="http://www.w3.org/2000/svg">
<g clip-path="url(#clip0_894_4058)">
<path d="M7.90843 13.5915C8.11738 13.8006 8.36548 13.9664 8.63855 14.0796C8.91163 14.1928 9.20433 14.251 9.49993 14.251C9.79552 14.251 10.0882 14.1928 10.3613 14.0796C10.6344 13.9664 10.8825 13.8006 11.0914 13.5915L13.4997 11.1833C13.6288 11.0404 13.6981 10.8535 13.6931 10.661C13.6882 10.4685 13.6094 10.2853 13.4731 10.1494C13.3368 10.0134 13.1535 9.93499 12.961 9.93045C12.7685 9.92592 12.5817 9.99558 12.4392 10.125L10.2447 12.3203L10.2499 0.75C10.2499 0.551088 10.1709 0.360322 10.0303 0.21967C9.8896 0.0790176 9.69884 0 9.49993 0V0C9.30101 0 9.11025 0.0790176 8.9696 0.21967C8.82894 0.360322 8.74993 0.551088 8.74993 0.75L8.74318 12.306L6.56068 10.125C6.41995 9.98437 6.22911 9.9054 6.03016 9.90547C5.83121 9.90554 5.64043 9.98464 5.4998 10.1254C5.35917 10.2661 5.2802 10.4569 5.28027 10.6559C5.28034 10.8548 5.35944 11.0456 5.50018 11.1863L7.90843 13.5915Z" fill="white"/>
<path d="M17.75 12C17.5511 12 17.3603 12.079 17.2197 12.2197C17.079 12.3603 17 12.5511 17 12.75V15.75C17 15.9489 16.921 16.1397 16.7803 16.2803C16.6397 16.421 16.4489 16.5 16.25 16.5H2.75C2.55109 16.5 2.36032 16.421 2.21967 16.2803C2.07902 16.1397 2 15.9489 2 15.75V12.75C2 12.5511 1.92098 12.3603 1.78033 12.2197C1.63968 12.079 1.44891 12 1.25 12C1.05109 12 0.860322 12.079 0.71967 12.2197C0.579018 12.3603 0.5 12.5511 0.5 12.75L0.5 15.75C0.5 16.3467 0.737053 16.919 1.15901 17.341C1.58097 17.7629 2.15326 18 2.75 18H16.25C16.8467 18 17.419 17.7629 17.841 17.341C18.2629 16.919 18.5 16.3467 18.5 15.75V12.75C18.5 12.5511 18.421 12.3603 18.2803 12.2197C18.1397 12.079 17.9489 12 17.75 12Z" fill="white"/>
</g>
<defs>
<clipPath id="clip0_894_4058">
<rect width="18" height="18" fill="white" transform="translate(0.5)"/>
</clipPath>
</defs>
</svg>
