<svg width="25" height="25" viewBox="0 0 25 25" fill="none" xmlns="http://www.w3.org/2000/svg">
<g clip-path="url(#clip0_609_2982)">
<path d="M24.0612 21.9454L19.4161 17.2983C22.8918 12.6535 21.9441 6.07052 17.2993 2.5948C12.6546 -0.88092 6.07156 0.0667952 2.59584 4.71157C-0.879883 9.35634 0.0678328 15.9393 4.71261 19.4151C8.44367 22.2071 13.5682 22.2071 17.2993 19.4151L21.9464 24.0622C22.5304 24.6462 23.4773 24.6462 24.0612 24.0622C24.6452 23.4782 24.6452 22.5314 24.0612 21.9474L24.0612 21.9454ZM11.0447 18.5181C6.91664 18.5181 3.57023 15.1717 3.57023 11.0437C3.57023 6.9156 6.91664 3.56919 11.0447 3.56919C15.1727 3.56919 18.5192 6.9156 18.5192 11.0437C18.5148 15.1698 15.1709 18.5137 11.0447 18.5181Z" fill="white"/>
</g>
<defs>
<clipPath id="clip0_609_2982">
<rect width="24" height="24" fill="white" transform="translate(0.5 0.5)"/>
</clipPath>
</defs>
</svg>
