<svg width="20" height="20" viewBox="0 0 20 20" fill="none" xmlns="http://www.w3.org/2000/svg">
<path d="M15.8333 9.16683H7.5L10.2417 6.42517C10.3198 6.3477 10.3818 6.25553 10.4241 6.15398C10.4664 6.05244 10.4882 5.94351 10.4882 5.8335C10.4882 5.72349 10.4664 5.61457 10.4241 5.51302C10.3818 5.41147 10.3198 5.31931 10.2417 5.24184C10.0855 5.08663 9.87432 4.99951 9.65417 4.99951C9.43401 4.99951 9.2228 5.08663 9.06667 5.24184L5.49167 8.82517C5.17868 9.13629 5.00186 9.55885 5 10.0002C5.00406 10.4386 5.1807 10.8578 5.49167 11.1668L9.06667 14.7502C9.14437 14.8273 9.2365 14.8884 9.33781 14.9299C9.43912 14.9715 9.54762 14.9927 9.65711 14.9923C9.76661 14.9919 9.87496 14.97 9.97597 14.9277C10.077 14.8854 10.1687 14.8237 10.2458 14.746C10.323 14.6683 10.3841 14.5762 10.4256 14.4749C10.4672 14.3735 10.4883 14.265 10.488 14.1555C10.4876 14.0461 10.4656 13.9377 10.4234 13.8367C10.3811 13.7357 10.3194 13.644 10.2417 13.5668L7.5 10.8335H15.8333C16.0543 10.8335 16.2663 10.7457 16.4226 10.5894C16.5789 10.4331 16.6667 10.2212 16.6667 10.0002C16.6667 9.77915 16.5789 9.56719 16.4226 9.41091C16.2663 9.25463 16.0543 9.16683 15.8333 9.16683Z" fill="#888888"/>
</svg>
