<svg width="12" height="10" viewBox="0 0 12 10" fill="none" xmlns="http://www.w3.org/2000/svg">
<path d="M12.0002 5.00013C11.9961 4.56171 11.8195 4.14255 11.5085 3.83347L7.9335 0.25014C7.77736 0.0949307 7.56615 0.0078125 7.346 0.0078125C7.12584 0.0078125 6.91463 0.0949307 6.7585 0.25014C6.68039 0.327609 6.61839 0.419776 6.57609 0.521325C6.53378 0.622875 6.512 0.731796 6.512 0.841806C6.512 0.951816 6.53378 1.06074 6.57609 1.16229C6.61839 1.26383 6.68039 1.356 6.7585 1.43347L9.50016 4.1668H1.16683C0.945816 4.1668 0.733854 4.2546 0.577574 4.41088C0.421294 4.56716 0.333496 4.77912 0.333496 5.00013C0.333496 5.22115 0.421294 5.43311 0.577574 5.58939C0.733854 5.74567 0.945816 5.83347 1.16683 5.83347H9.50016L6.7585 8.57513C6.60158 8.73095 6.51298 8.94271 6.5122 9.16385C6.51142 9.38499 6.59851 9.59738 6.75433 9.7543C6.91014 9.91122 7.12191 9.99981 7.34305 10.0006C7.56419 10.0014 7.77658 9.91428 7.9335 9.75846L11.5085 6.17513C11.8215 5.86401 11.9983 5.44145 12.0002 5.00013V5.00013Z" fill="#888888"/>
</svg>
