<svg width="58" height="50" viewBox="0 0 58 50" fill="none" xmlns="http://www.w3.org/2000/svg">
<rect width="58" height="50" rx="12" fill="#003565"/>
<g clip-path="url(#clip0_609_2981)">
<path d="M40.0612 34.9454L35.4161 30.2983C38.8918 25.6535 37.9441 19.0705 33.2993 15.5948C28.6546 12.1191 22.0716 13.0668 18.5958 17.7116C15.1201 22.3563 16.0678 28.9393 20.7126 32.4151C24.4437 35.2071 29.5682 35.2071 33.2993 32.4151L37.9464 37.0622C38.5304 37.6462 39.4773 37.6462 40.0612 37.0622C40.6452 36.4782 40.6452 35.5314 40.0612 34.9474L40.0612 34.9454ZM27.0447 31.5181C22.9166 31.5181 19.5702 28.1717 19.5702 24.0437C19.5702 19.9156 22.9166 16.5692 27.0447 16.5692C31.1727 16.5692 34.5192 19.9156 34.5192 24.0437C34.5148 28.1698 31.1709 31.5137 27.0447 31.5181Z" fill="white"/>
</g>
<defs>
<clipPath id="clip0_609_2981">
<rect width="24" height="24" fill="white" transform="translate(16.5 13.5)"/>
</clipPath>
</defs>
</svg>
